<svg width="24" height="20" viewBox="0 0 24 20" fill="none" xmlns="http://www.w3.org/2000/svg">
<g clip-path="url(#clip0_26_1298)">
<path d="M9.23098 18.1818C9.23098 18.6742 9.04829 19.1004 8.68291 19.4602C8.31753 19.8201 7.88485 20 7.38486 20C6.88487 20 6.45218 19.8201 6.0868 19.4602C5.72142 19.1004 5.53873 18.6742 5.53873 18.1818C5.53873 17.6894 5.72142 17.2633 6.0868 16.9034C6.45218 16.5436 6.88487 16.3636 7.38486 16.3636C7.88485 16.3636 8.31753 16.5436 8.68291 16.9034C9.04829 17.2633 9.23098 17.6894 9.23098 18.1818ZM22.1538 18.1818C22.1538 18.6742 21.9711 19.1004 21.6058 19.4602C21.2404 19.8201 20.8077 20 20.3077 20C19.8077 20 19.375 19.8201 19.0097 19.4602C18.6443 19.1004 18.4616 18.6742 18.4616 18.1818C18.4616 17.6894 18.6443 17.2633 19.0097 16.9034C19.375 16.5436 19.8077 16.3636 20.3077 16.3636C20.8077 16.3636 21.2404 16.5436 21.6058 16.9034C21.9711 17.2633 22.1538 17.6894 22.1538 18.1818ZM24 2.72727V10C24 10.2273 23.9206 10.4285 23.762 10.6037C23.6033 10.7789 23.4086 10.8807 23.1779 10.9091L8.12042 12.642C8.24542 13.2102 8.30792 13.5417 8.30792 13.6364C8.30792 13.7879 8.19254 14.0909 7.96177 14.5455H21.2308C21.4808 14.5455 21.6971 14.6354 21.8798 14.8153C22.0625 14.9953 22.1538 15.2083 22.1538 15.4545C22.1538 15.7008 22.0625 15.9138 21.8798 16.0938C21.6971 16.2737 21.4808 16.3636 21.2308 16.3636H6.4618C6.2118 16.3636 5.99546 16.2737 5.81277 16.0938C5.63008 15.9138 5.53873 15.7008 5.53873 15.4545C5.53873 15.3504 5.57719 15.2012 5.65412 15.0071C5.73104 14.813 5.80796 14.6425 5.88488 14.4957C5.9618 14.349 6.06517 14.1596 6.19497 13.9276C6.32478 13.6955 6.3993 13.5559 6.41853 13.5085L3.86569 1.81818H0.923428C0.673432 1.81818 0.457089 1.72822 0.2744 1.5483C0.0917108 1.36837 0.000366211 1.1553 0.000366211 0.909091C0.000366211 0.662879 0.0917108 0.449811 0.2744 0.269886C0.457089 0.0899621 0.673432 0 0.923428 0H4.61567C4.76952 0 4.90653 0.0307765 5.02672 0.0923295C5.14691 0.153883 5.24066 0.227273 5.30797 0.3125C5.37528 0.397727 5.43777 0.513731 5.49547 0.660511C5.55316 0.807292 5.59162 0.930398 5.61085 1.02983C5.63008 1.12926 5.65652 1.26894 5.69017 1.44886C5.72383 1.62879 5.74546 1.75189 5.75508 1.81818H23.0769C23.3269 1.81818 23.5432 1.90814 23.7259 2.08807C23.9086 2.26799 24 2.48106 24 2.72727Z" fill="#2E2E2E"/>
</g>
<defs>
<clipPath id="clip0_26_1298">
<rect width="24" height="20" fill="white"/>
</clipPath>
</defs>
</svg>
