<svg width="20" height="22" viewBox="0 0 20 22" fill="none" xmlns="http://www.w3.org/2000/svg">
<g clip-path="url(#clip0_26_1300)">
<path d="M19.9996 18.2044C19.9996 19.2452 19.6741 20.138 19.0231 20.8828C18.372 21.6276 17.5882 22 16.6716 22H3.32866C2.41205 22 1.62824 21.6276 0.977237 20.8828C0.326234 20.138 0.000732422 19.2452 0.000732422 18.2044C0.000732422 17.3928 0.0450007 16.6265 0.133537 15.9056C0.222074 15.1847 0.386126 14.459 0.625696 13.7285C0.865265 12.998 1.16993 12.3726 1.5397 11.8522C1.90947 11.3318 2.39903 10.9069 3.00837 10.5775C3.61771 10.248 4.31819 10.0833 5.10981 10.0833C6.47431 11.3056 8.10442 11.9167 10.0001 11.9167C11.8959 11.9167 13.526 11.3056 14.8905 10.0833C15.6821 10.0833 16.3826 10.248 16.9919 10.5775C17.6013 10.9069 18.0908 11.3318 18.4606 11.8522C18.8304 12.3726 19.135 12.998 19.3746 13.7285C19.6142 14.459 19.7782 15.1847 19.8668 15.9056C19.9553 16.6265 19.9996 17.3928 19.9996 18.2044ZM15.9998 5.5C15.9998 7.01823 15.4139 8.31445 14.2421 9.38867C13.0703 10.4629 11.6563 11 10.0001 11C8.34399 11 6.93001 10.4629 5.75821 9.38867C4.5864 8.31445 4.0005 7.01823 4.0005 5.5C4.0005 3.98177 4.5864 2.68555 5.75821 1.61133C6.93001 0.537109 8.34399 0 10.0001 0C11.6563 0 13.0703 0.537109 14.2421 1.61133C15.4139 2.68555 15.9998 3.98177 15.9998 5.5Z" fill="#2E2E2E"/>
</g>
<defs>
<clipPath id="clip0_26_1300">
<rect width="20" height="22" fill="white"/>
</clipPath>
</defs>
</svg>
