<svg width="64" height="64" viewBox="0 0 64 64" fill="none" xmlns="http://www.w3.org/2000/svg">
<g clip-path="url(#clip0_182_62)">
<path d="M52 0C55.3056 0 58.1319 1.17361 60.4792 3.52083C62.8264 5.86806 64 8.69444 64 12V52C64 55.3056 62.8264 58.1319 60.4792 60.4792C58.1319 62.8264 55.3056 64 52 64H44.1667V39.2083H52.4583L53.7083 29.5417H44.1667V23.375C44.1667 21.8194 44.4931 20.6528 45.1458 19.875C45.7986 19.0972 47.0694 18.7083 48.9583 18.7083L54.0417 18.6667V10.0417C52.2917 9.79167 49.8194 9.66667 46.625 9.66667C42.8472 9.66667 39.8264 10.7778 37.5625 13C35.2986 15.2222 34.1667 18.3611 34.1667 22.4167V29.5417H25.8333V39.2083H34.1667V64H12C8.69444 64 5.86806 62.8264 3.52083 60.4792C1.17361 58.1319 0 55.3056 0 52V12C0 8.69444 1.17361 5.86806 3.52083 3.52083C5.86806 1.17361 8.69444 0 12 0H52Z" fill="#2E2E2E"/>
</g>
<defs>
<clipPath id="clip0_182_62">
<rect width="64" height="64" fill="white"/>
</clipPath>
</defs>
</svg>
