<svg width="64" height="64" viewBox="0 0 64 64" fill="#198754" xmlns="http://www.w3.org/2000/svg">
<g clip-path="url(#clip0_182_64)">
<path d="M42.6667 32C42.6667 29.0556 41.625 26.5417 39.5417 24.4583C37.4583 22.375 34.9444 21.3333 32 21.3333C29.0556 21.3333 26.5417 22.375 24.4583 24.4583C22.375 26.5417 21.3333 29.0556 21.3333 32C21.3333 34.9444 22.375 37.4583 24.4583 39.5417C26.5417 41.625 29.0556 42.6667 32 42.6667C34.9444 42.6667 37.4583 41.625 39.5417 39.5417C41.625 37.4583 42.6667 34.9444 42.6667 32ZM48.4167 32C48.4167 36.5556 46.8194 40.4306 43.625 43.625C40.4306 46.8194 36.5556 48.4167 32 48.4167C27.4444 48.4167 23.5694 46.8194 20.375 43.625C17.1806 40.4306 15.5833 36.5556 15.5833 32C15.5833 27.4444 17.1806 23.5694 20.375 20.375C23.5694 17.1806 27.4444 15.5833 32 15.5833C36.5556 15.5833 40.4306 17.1806 43.625 20.375C46.8194 23.5694 48.4167 27.4444 48.4167 32ZM52.9167 14.9167C52.9167 15.9722 52.5417 16.875 51.7917 17.625C51.0417 18.375 50.1389 18.75 49.0833 18.75C48.0278 18.75 47.125 18.375 46.375 17.625C45.625 16.875 45.25 15.9722 45.25 14.9167C45.25 13.8611 45.625 12.9583 46.375 12.2083C47.125 11.4583 48.0278 11.0833 49.0833 11.0833C50.1389 11.0833 51.0417 11.4583 51.7917 12.2083C52.5417 12.9583 52.9167 13.8611 52.9167 14.9167ZM32 5.75C31.8056 5.75 30.7431 5.74306 28.8125 5.72917C26.8819 5.71528 25.4167 5.71528 24.4167 5.72917C23.4167 5.74306 22.0764 5.78472 20.3958 5.85417C18.7153 5.92361 17.2847 6.0625 16.1042 6.27083C14.9236 6.47917 13.9306 6.73611 13.125 7.04167C11.7361 7.59722 10.5139 8.40278 9.45833 9.45833C8.40278 10.5139 7.59722 11.7361 7.04167 13.125C6.73611 13.9306 6.47917 14.9236 6.27083 16.1042C6.0625 17.2847 5.92361 18.7153 5.85417 20.3958C5.78472 22.0764 5.74306 23.4167 5.72917 24.4167C5.71528 25.4167 5.71528 26.8819 5.72917 28.8125C5.74306 30.7431 5.75 31.8056 5.75 32C5.75 32.1944 5.74306 33.2569 5.72917 35.1875C5.71528 37.1181 5.71528 38.5833 5.72917 39.5833C5.74306 40.5833 5.78472 41.9236 5.85417 43.6042C5.92361 45.2847 6.0625 46.7153 6.27083 47.8958C6.47917 49.0764 6.73611 50.0694 7.04167 50.875C7.59722 52.2639 8.40278 53.4861 9.45833 54.5417C10.5139 55.5972 11.7361 56.4028 13.125 56.9583C13.9306 57.2639 14.9236 57.5208 16.1042 57.7292C17.2847 57.9375 18.7153 58.0764 20.3958 58.1458C22.0764 58.2153 23.4167 58.2569 24.4167 58.2708C25.4167 58.2847 26.8819 58.2847 28.8125 58.2708C30.7431 58.2569 31.8056 58.25 32 58.25C32.1944 58.25 33.2569 58.2569 35.1875 58.2708C37.1181 58.2847 38.5833 58.2847 39.5833 58.2708C40.5833 58.2569 41.9236 58.2153 43.6042 58.1458C45.2847 58.0764 46.7153 57.9375 47.8958 57.7292C49.0764 57.5208 50.0694 57.2639 50.875 56.9583C52.2639 56.4028 53.4861 55.5972 54.5417 54.5417C55.5972 53.4861 56.4028 52.2639 56.9583 50.875C57.2639 50.0694 57.5208 49.0764 57.7292 47.8958C57.9375 46.7153 58.0764 45.2847 58.1458 43.6042C58.2153 41.9236 58.2569 40.5833 58.2708 39.5833C58.2847 38.5833 58.2847 37.1181 58.2708 35.1875C58.2569 33.2569 58.25 32.1944 58.25 32C58.25 31.8056 58.2569 30.7431 58.2708 28.8125C58.2847 26.8819 58.2847 25.4167 58.2708 24.4167C58.2569 23.4167 58.2153 22.0764 58.1458 20.3958C58.0764 18.7153 57.9375 17.2847 57.7292 16.1042C57.5208 14.9236 57.2639 13.9306 56.9583 13.125C56.4028 11.7361 55.5972 10.5139 54.5417 9.45833C53.4861 8.40278 52.2639 7.59722 50.875 7.04167C50.0694 6.73611 49.0764 6.47917 47.8958 6.27083C46.7153 6.0625 45.2847 5.92361 43.6042 5.85417C41.9236 5.78472 40.5833 5.74306 39.5833 5.72917C38.5833 5.71528 37.1181 5.71528 35.1875 5.72917C33.2569 5.74306 32.1944 5.75 32 5.75ZM64 32C64 38.3611 63.9306 42.7639 63.7917 45.2083C63.5139 50.9861 61.7917 55.4583 58.625 58.625C55.4583 61.7917 50.9861 63.5139 45.2083 63.7917C42.7639 63.9306 38.3611 64 32 64C25.6389 64 21.2361 63.9306 18.7917 63.7917C13.0139 63.5139 8.54167 61.7917 5.375 58.625C2.20833 55.4583 0.486111 50.9861 0.208333 45.2083C0.0694444 42.7639 0 38.3611 0 32C0 25.6389 0.0694444 21.2361 0.208333 18.7917C0.486111 13.0139 2.20833 8.54167 5.375 5.375C8.54167 2.20833 13.0139 0.486111 18.7917 0.208333C21.2361 0.0694444 25.6389 0 32 0C38.3611 0 42.7639 0.0694444 45.2083 0.208333C50.9861 0.486111 55.4583 2.20833 58.625 5.375C61.7917 8.54167 63.5139 13.0139 63.7917 18.7917C63.9306 21.2361 64 25.6389 64 32Z" fill="#2E2E2E"/>
</g>
<defs>
<clipPath id="clip0_182_64">
<rect width="64" height="64" fill="#198754"/>
</clipPath>
</defs>
</svg>
