<?xml version="1.0" encoding="UTF-8"?>
<svg id="Capa_2" data-name="Capa 2" xmlns="http://www.w3.org/2000/svg" viewBox="0 0 210.71 223.71">
  <defs>
    <style>
      .cls-1 {
        fill: #cde353;
      }

      .cls-2 {
        fill: #496b08;
      }

      .cls-3 {
        fill: #f00234;
      }

      .cls-4 {
        fill: #c9da66;
      }

      .cls-5 {
        fill: #89b462;
      }

      .cls-6 {
        fill: #7daf2c;
      }
    </style>
  </defs>
  <g id="OBJECTS">
    <g>
      <circle class="cls-5" cx="156.43" cy="146.62" r="18.11" transform="translate(-21.58 27.11) rotate(-9.27)"/>
      <g>
        <path class="cls-3" d="M158.36,53.83c-34.56-39.41-87.38,3.95-25.34,74.68,92.27-18.36,76.75-84.91,25.34-74.68Z"/>
        <path class="cls-6" d="M159.45,50.61s13.66-34.72-2.75-50.61l-3.91,3.36s13.3,13.75,4.52,46.53l2.14,.73Z"/>
        <path class="cls-6" d="M149.13,24.66c-5.29-1.83-10.72-3.32-16.27-4.33,5.63,.39,11.24,1.28,16.78,2.53,2.2,.49,4.38,1.09,6.55,1.73-3.49-4.41-13.14-13.43-29.04-4.97,0,0,10.49,19.35,29.28,7.89-2.39-1.04-4.82-2.01-7.3-2.86Z"/>
        <path class="cls-6" d="M165.39,40.8c2.01-.95,4.06-1.8,6.17-2.49,3.83-1.28,7.73-2.32,11.68-2.96,3.94-.68,7.92-1.1,11.89-1.27,3.97-.16,7.95-.11,11.9,.28-3.96-.08-7.91,.19-11.82,.65-3.91,.48-7.78,1.2-11.58,2.17-3.8,.93-7.5,2.23-11.06,3.75-2.21,.92-4.32,2.03-6.37,3.23,24.8,14.34,44.51-11.02,44.51-11.02-27.76-13.25-41.36,1.86-45.32,7.66Z"/>
      </g>
      <g>
        <path class="cls-1" d="M84.94,122.59c23.64-26.95,59.76,2.7,17.33,51.08-63.11-12.56-52.49-58.07-17.33-51.08Z"/>
        <path class="cls-6" d="M84.2,120.39s-9.34-23.75,1.88-34.62l2.68,2.3s-9.1,9.4-3.09,31.82l-1.46,.5Z"/>
        <path class="cls-6" d="M91.26,102.64c3.61-1.25,7.33-2.27,11.13-2.96-3.85,.27-7.69,.87-11.48,1.73-1.5,.34-3,.74-4.48,1.19,2.39-3.01,8.99-9.18,19.86-3.4,0,0-7.18,13.24-20.02,5.39,1.63-.71,3.3-1.37,4.99-1.96Z"/>
        <path class="cls-6" d="M80.14,113.68c-1.38-.65-2.78-1.23-4.22-1.7-2.62-.88-5.28-1.58-7.99-2.02-2.7-.46-5.41-.76-8.13-.87-2.72-.11-5.44-.07-8.14,.19,2.71-.05,5.41,.13,8.08,.44,2.68,.33,5.32,.82,7.92,1.48,2.6,.64,5.13,1.53,7.57,2.56,1.51,.63,2.96,1.39,4.35,2.21-16.96,9.81-30.44-7.54-30.44-7.54,18.99-9.06,28.29,1.27,31,5.24Z"/>
      </g>
      <path class="cls-2" d="M204.57,83.43c-1.21-1.53-3.08-2.4-5.04-2.36l-150.68,3.76,2.97-19.37c.28-1.82-.26-3.67-1.48-5.06s-2.99-2.16-4.83-2.11l-39.46,.98C2.63,59.36-.08,62.22,0,65.65c.09,3.44,2.95,6.15,6.38,6.07l32.02-.8-12.45,81.16s0,0,0,0c0,0,0,0,0,0l-4.17,27.57c-.27,1.82,.27,3.67,1.49,5.05,.94,1.07,2.21,1.77,3.59,2.01,.4,.07,.81,.1,1.23,.09l12.72-.32c-3.94,4.26-6.03,9.78-5.89,15.59,.27,10.73,8.15,19.51,18.34,21.29,1.42,.25,2.89,.36,4.39,.33,12.22-.31,21.92-10.5,21.61-22.73h0c-.15-6-2.69-11.38-6.67-15.27l49.55-1.24c-3.78,4.09-6.05,9.59-5.9,15.59,.15,5.92,2.59,11.43,6.88,15.51,3.2,3.05,7.15,5.03,11.41,5.77,1.45,.25,2.93,.36,4.43,.33,5.92-.15,11.43-2.6,15.51-6.88,4.08-4.29,6.25-9.92,6.1-15.84-.14-5.81-2.51-11.22-6.66-15.28l13.17-.33c3.44-.08,6.15-2.94,6.06-6.38-.09-3.44-2.93-6.14-6.38-6.07l-131.57,3.29,2.28-15.08,146.03-3.65c2.77-.07,5.16-1.96,5.86-4.63l16.35-61.96c.5-1.89,.08-3.91-1.14-5.45Zm-66.43,106.35c.66-.02,1.31,.03,1.94,.14,1.87,.33,3.6,1.2,5.01,2.53,1.88,1.79,2.96,4.21,3.02,6.81h0c.07,2.6-.88,5.07-2.68,6.95-1.79,1.88-4.21,2.95-6.8,3.02-2.61,.07-5.07-.89-6.95-2.68-1.88-1.79-2.96-4.21-3.02-6.81-.13-5.36,4.12-9.84,9.48-9.97Zm-88.11,5.05c1.79-1.88,4.21-2.96,6.81-3.02,.66-.02,1.3,.03,1.92,.14,4.47,.78,7.93,4.63,8.04,9.34h0c.13,5.36-4.12,9.84-9.48,9.97-5.36,.12-9.84-4.12-9.97-9.48-.07-2.6,.89-5.07,2.68-6.95Zm128.49-51.69l-139.14,3.47,7.56-49.29,144.62-3.61-13.04,49.43Z"/>
      <path class="cls-4" d="M89.68,74.23c-3.6-4.44-7.43-8.77-11.4-12.99-3.97-4.2-8.08-8.3-12.39-12.22,4.89,3.17,9.63,6.59,14.28,10.15,4.63,3.56,9.18,7.28,13.59,11.2,1.76,1.59,3.49,3.22,5.2,4.88-2.18-35.47-41.87-34.26-41.87-34.26,2.91,31.39,24.99,39.66,35.9,40.38,.79,.05,1.51,.06,2.17,.04-1.76-2.42-3.58-4.82-5.47-7.18Z"/>
    </g>
  </g>
</svg>