<svg width="16" height="16" viewBox="0 0 64 64" fill="none" xmlns="http://www.w3.org/2000/svg">
<g clip-path="url(#clip0_187_68)">
<path d="M44.3077 27.0769C44.3077 22.3333 42.6218 18.2756 39.25 14.9038C35.8782 11.5321 31.8205 9.84615 27.0769 9.84615C22.3333 9.84615 18.2756 11.5321 14.9038 14.9038C11.5321 18.2756 9.84615 22.3333 9.84615 27.0769C9.84615 31.8205 11.5321 35.8782 14.9038 39.25C18.2756 42.6218 22.3333 44.3077 27.0769 44.3077C31.8205 44.3077 35.8782 42.6218 39.25 39.25C42.6218 35.8782 44.3077 31.8205 44.3077 27.0769ZM64 59.0769C64 60.4103 63.5128 61.5641 62.5385 62.5385C61.5641 63.5128 60.4103 64 59.0769 64C57.6923 64 56.5385 63.5128 55.6154 62.5385L42.4231 49.3846C37.8333 52.5641 32.718 54.1538 27.0769 54.1538C23.4103 54.1538 19.9038 53.4423 16.5577 52.0192C13.2115 50.5962 10.3269 48.6731 7.90385 46.25C5.48077 43.8269 3.55769 40.9423 2.13462 37.5962C0.711538 34.25 0 30.7436 0 27.0769C0 23.4103 0.711538 19.9038 2.13462 16.5577C3.55769 13.2115 5.48077 10.3269 7.90385 7.90385C10.3269 5.48077 13.2115 3.55769 16.5577 2.13462C19.9038 0.711538 23.4103 0 27.0769 0C30.7436 0 34.25 0.711538 37.5962 2.13462C40.9423 3.55769 43.8269 5.48077 46.25 7.90385C48.6731 10.3269 50.5962 13.2115 52.0192 16.5577C53.4423 19.9038 54.1538 23.4103 54.1538 27.0769C54.1538 32.718 52.5641 37.8333 49.3846 42.4231L62.5769 55.6154C63.5256 56.5641 64 57.718 64 59.0769Z" fill="#2E2E2E"/>
</g>
<defs>
<clipPath id="clip0_187_68">
<rect width="64" height="64" fill="white"/>
</clipPath>
</defs>
</svg>
