<svg width="24" height="28" viewBox="0 0 59 64" fill="none" xmlns="http://www.w3.org/2000/svg">
<g clip-path="url(#clip0_137_6)">
<path d="M21.335 52V22.6667C21.335 22.2778 21.21 21.9583 20.96 21.7083C20.71 21.4583 20.3905 21.3333 20.0016 21.3333H17.335C16.9461 21.3333 16.6266 21.4583 16.3766 21.7083C16.1266 21.9583 16.0016 22.2778 16.0016 22.6667V52C16.0016 52.3889 16.1266 52.7083 16.3766 52.9583C16.6266 53.2083 16.9461 53.3333 17.335 53.3333H20.0016C20.3905 53.3333 20.71 53.2083 20.96 52.9583C21.21 52.7083 21.335 52.3889 21.335 52ZM32.0016 52V22.6667C32.0016 22.2778 31.8766 21.9583 31.6266 21.7083C31.3766 21.4583 31.0572 21.3333 30.6683 21.3333H28.0016C27.6128 21.3333 27.2933 21.4583 27.0433 21.7083C26.7933 21.9583 26.6683 22.2778 26.6683 22.6667V52C26.6683 52.3889 26.7933 52.7083 27.0433 52.9583C27.2933 53.2083 27.6128 53.3333 28.0016 53.3333H30.6683C31.0572 53.3333 31.3766 53.2083 31.6266 52.9583C31.8766 52.7083 32.0016 52.3889 32.0016 52ZM42.6683 52V22.6667C42.6683 22.2778 42.5433 21.9583 42.2933 21.7083C42.0433 21.4583 41.7239 21.3333 41.335 21.3333H38.6683C38.2794 21.3333 37.96 21.4583 37.71 21.7083C37.46 21.9583 37.335 22.2778 37.335 22.6667V52C37.335 52.3889 37.46 52.7083 37.71 52.9583C37.96 53.2083 38.2794 53.3333 38.6683 53.3333H41.335C41.7239 53.3333 42.0433 53.2083 42.2933 52.9583C42.5433 52.7083 42.6683 52.3889 42.6683 52ZM20.0016 10.6667H38.6683L36.6683 5.79167C36.4739 5.54167 36.2378 5.38889 35.96 5.33333H22.7516C22.4739 5.38889 22.2378 5.54167 22.0433 5.79167L20.0016 10.6667ZM58.6683 12V14.6667C58.6683 15.0556 58.5433 15.375 58.2933 15.625C58.0433 15.875 57.7239 16 57.335 16H53.335V55.5C53.335 57.8056 52.6822 59.7986 51.3766 61.4792C50.0711 63.1597 48.5016 64 46.6683 64H12.0016C10.1683 64 8.59887 63.1875 7.29331 61.5625C5.98776 59.9375 5.33498 57.9722 5.33498 55.6667V16H1.33498C0.946092 16 0.626648 15.875 0.376648 15.625C0.126648 15.375 0.00164795 15.0556 0.00164795 14.6667V12C0.00164795 11.6111 0.126648 11.2917 0.376648 11.0417C0.626648 10.7917 0.946092 10.6667 1.33498 10.6667H14.21L17.1266 3.70833C17.5433 2.68056 18.2933 1.80556 19.3766 1.08333C20.46 0.361111 21.5572 0 22.6683 0H36.0016C37.1128 0 38.21 0.361111 39.2933 1.08333C40.3766 1.80556 41.1266 2.68056 41.5433 3.70833L44.46 10.6667H57.335C57.7239 10.6667 58.0433 10.7917 58.2933 11.0417C58.5433 11.2917 58.6683 11.6111 58.6683 12Z" fill="#2E2E2E"/>
</g>
<defs>
<clipPath id="clip0_137_6">
<rect width="58.67" height="64" fill="white"/>
</clipPath>
</defs>
</svg>
