<svg width="64" height="64" viewBox="0 0 64 64" fill="none" xmlns="http://www.w3.org/2000/svg">
<g clip-path="url(#clip0_182_66)">
<path d="M53.3333 20.0833C51.7778 20.7778 50.0972 21.25 48.2917 21.5C50.1806 20.3889 51.4722 18.7639 52.1667 16.625C50.3611 17.6806 48.5 18.3889 46.5833 18.75C44.8889 16.9167 42.7639 16 40.2083 16C37.7917 16 35.7292 16.8542 34.0208 18.5625C32.3125 20.2708 31.4583 22.3333 31.4583 24.75C31.4583 25.5556 31.5278 26.2222 31.6667 26.75C28.0833 26.5556 24.7222 25.6528 21.5833 24.0417C18.4444 22.4306 15.7778 20.2778 13.5833 17.5833C12.7778 18.9722 12.375 20.4444 12.375 22C12.375 25.1667 13.6389 27.5972 16.1667 29.2917C14.8611 29.2639 13.4722 28.9028 12 28.2083V28.2917C12 30.375 12.6944 32.2292 14.0833 33.8542C15.4722 35.4792 17.1806 36.4861 19.2083 36.875C18.4028 37.0972 17.6944 37.2083 17.0833 37.2083C16.7222 37.2083 16.1806 37.1528 15.4583 37.0417C16.0417 38.7917 17.0764 40.2361 18.5625 41.375C20.0486 42.5139 21.7361 43.0972 23.625 43.125C20.4028 45.625 16.7778 46.875 12.75 46.875C12.0278 46.875 11.3333 46.8333 10.6667 46.75C14.7778 49.3611 19.25 50.6667 24.0833 50.6667C27.1944 50.6667 30.1111 50.1736 32.8333 49.1875C35.5556 48.2014 37.8889 46.8819 39.8333 45.2292C41.7778 43.5764 43.4514 41.6736 44.8542 39.5208C46.2569 37.3681 47.2986 35.1181 47.9792 32.7708C48.6597 30.4236 49 28.0833 49 25.75C49 25.25 48.9861 24.875 48.9583 24.625C50.7083 23.375 52.1667 21.8611 53.3333 20.0833ZM64 12V52C64 55.3056 62.8264 58.1319 60.4792 60.4792C58.1319 62.8264 55.3056 64 52 64H12C8.69444 64 5.86806 62.8264 3.52083 60.4792C1.17361 58.1319 0 55.3056 0 52V12C0 8.69444 1.17361 5.86806 3.52083 3.52083C5.86806 1.17361 8.69444 0 12 0H52C55.3056 0 58.1319 1.17361 60.4792 3.52083C62.8264 5.86806 64 8.69444 64 12Z" fill="#2E2E2E"/>
</g>
<defs>
<clipPath id="clip0_182_66">
<rect width="64" height="64" fill="white"/>
</clipPath>
</defs>
</svg>
